<svg width="118" height="40" viewBox="0 0 118 40" fill="none" xmlns="http://www.w3.org/2000/svg">
<path d="M10.4219 11.0944H5.0235L4.0113 13.6981H0.337402L5.96071 0.22644H9.52215L15.1829 13.6981H11.4341L10.4219 11.0944ZM9.37219 8.3019L7.72269 4.00002L6.07318 8.3019H9.3347H9.37219Z" fill="white"/>
<path d="M27.7041 13.7358V6.60377L24.4051 12.4151H22.7931L19.5316 6.79246V13.7358H16.1951V0.26416H19.1567L23.6178 8.03774L28.004 0.26416H30.9656V13.7358H27.7041Z" fill="white"/>
<path d="M43.7869 10.7925V13.7358H33.5525V0.26416H43.562V3.20755H37.1514V5.4717H42.8122V8.30189H37.1514V10.7547H43.8244L43.7869 10.7925Z" fill="white"/>
<path d="M48.5104 3.28302H44.6116V0.26416H56.0082V3.28302H52.1093V13.7358H48.5104V3.28302Z" fill="white"/>
<path d="M69.4668 0.26416V13.7358H65.8679V8.49056H60.9568V13.7358H57.3579V0.26416H60.9568V5.32075H65.8679V0.26416H69.4668Z" fill="white"/>
<path d="M78.8389 8.90566V13.7358H75.24V8.83019L70.3665 0.26416H74.1528L77.1894 5.62265L80.226 0.26416H83.7124L78.8389 8.90566Z" fill="white"/>
<path d="M83.4875 12.5283L84.6872 9.73584C85.8119 10.5283 87.4239 11.0566 88.8859 11.0566C90.348 11.0566 90.9478 10.6038 90.9478 9.96226C90.9478 7.81132 83.7125 9.39622 83.7125 4.37735C83.7125 1.96226 85.5869 0 89.3733 0C91.0228 0 92.7473 0.415099 93.9844 1.16982L92.8597 4C91.6226 3.32076 90.423 2.9434 89.3358 2.9434C87.8362 2.9434 87.2739 3.4717 87.2739 4.15094C87.2739 6.22641 94.5092 4.67925 94.5092 9.62264C94.5092 11.9623 92.6348 13.9623 88.8484 13.9623C86.7491 13.9623 84.6872 13.3585 83.4875 12.4906V12.5283Z" fill="white"/>
<path d="M98.6703 3.28302H94.7715V0.26416H106.168V3.28302H102.269V13.7358H98.6703V3.28302Z" fill="white"/>
<path d="M117.752 10.7925V13.7358H107.518V0.26416H117.527V3.20755H111.117V5.4717H116.778V8.30189H111.117V10.7547H117.79L117.752 10.7925Z" fill="white"/>
<path d="M0 18.8302H9.48465C16.1202 18.8302 20.6938 22.8302 20.6938 29.2075C20.6938 35.5849 16.1576 39.5849 9.48465 39.5849H0V18.8679V18.8302ZM9.25972 34.8679C12.6712 34.8679 14.958 32.7547 14.958 29.1698C14.958 25.5849 12.6712 23.4717 9.25972 23.4717H5.69829V34.8302H9.25972V34.8679Z" fill="white"/>
<path d="M40.9001 35.0188V39.5471H24.8174V18.8302H40.5252V23.3585H30.4032V26.8679H39.3255V31.2453H30.4032V35.0188H40.9001Z" fill="white"/>
<path d="M43.7869 37.6981L45.6613 33.3585C47.4233 34.566 49.9725 35.3962 52.2593 35.3962C54.5461 35.3962 55.5208 34.717 55.5208 33.6981C55.5208 30.4151 44.1243 32.7924 44.1243 25.0943C44.1243 21.3962 47.0484 18.3773 53.0091 18.3773C55.5958 18.3773 58.295 18.9811 60.2819 20.1887L58.5199 24.5283C56.608 23.4717 54.6961 22.9434 52.9716 22.9434C50.6098 22.9434 49.7476 23.7736 49.7476 24.7924C49.7476 27.9623 61.1067 25.5849 61.1067 33.2453C61.1067 36.8679 58.1825 39.9245 52.2218 39.9245C48.9228 39.9245 45.6613 39.0188 43.7869 37.6604V37.6981Z" fill="white"/>
<path d="M64.8557 18.8302H70.5165V39.5471H64.8557V18.8302Z" fill="white"/>
<path d="M89.1108 28.7547H94.1343V37.3585C91.81 39.0566 88.6234 40 85.6993 40C79.3262 40 74.6401 35.5471 74.6401 29.2075C74.6401 22.8679 79.2887 18.4151 85.8118 18.4151C89.5607 18.4151 92.5972 19.7358 94.5842 22.1887L90.9852 25.5471C89.5981 23.9622 88.0236 23.2452 86.1117 23.2452C82.6627 23.2452 80.3759 25.5849 80.3759 29.1698C80.3759 32.7547 82.6627 35.0943 86.0367 35.0943C87.0864 35.0943 88.0986 34.9056 89.1108 34.415V28.7169V28.7547Z" fill="white"/>
<path d="M117.94 18.8302V39.5471H113.291L104.444 28.4905V39.5471H98.8953V18.8302H103.544L112.391 29.8868V18.8302H117.94Z" fill="white"/>
</svg>
